/* XPM */
static char * rpcemu_xpm[] = {
"48 48 510 2",
"  	c #FFFFFF",
". 	c #EFF4EF",
"+ 	c #C0DAC0",
"@ 	c #6BB46B",
"# 	c #3FB03F",
"$ 	c #3ABD3A",
"% 	c #54D054",
"& 	c #93E693",
"* 	c #E1FAE1",
"= 	c #FAFEFA",
"- 	c #98B598",
"; 	c #277527",
"> 	c #007200",
", 	c #009000",
"' 	c #00A800",
") 	c #00BC00",
"! 	c #00CF00",
"~ 	c #00DC09",
"{ 	c #01E10F",
"] 	c #5EEC67",
"^ 	c #DFFADF",
"/ 	c #547E54",
"( 	c #015001",
"_ 	c #006600",
": 	c #017E01",
"< 	c #019701",
"[ 	c #00AB00",
"} 	c #00BE00",
"| 	c #00D201",
"1 	c #01E210",
"2 	c #05EE19",
"3 	c #0AF21D",
"4 	c #14EA23",
"5 	c #C5F5C6",
"6 	c #4E744E",
"7 	c #004300",
"8 	c #015801",
"9 	c #006A00",
"0 	c #008000",
"a 	c #009600",
"b 	c #00BB00",
"c 	c #00CE00",
"d 	c #00DE0B",
"e 	c #03EB17",
"f 	c #0EF521",
"g 	c #10F722",
"h 	c #0DEA1C",
"i 	c #C8F6C9",
"j 	c #849D84",
"k 	c #003A00",
"l 	c #014901",
"m 	c #005900",
"n 	c #006C00",
"o 	c #009300",
"p 	c #00A300",
"q 	c #00B600",
"r 	c #00C900",
"s 	c #00DA06",
"t 	c #00E612",
"u 	c #08F01C",
"v 	c #0FF621",
"w 	c #0CF41E",
"x 	c #28E634",
"y 	c #EDFCED",
"z 	c #DAE2DA",
"A 	c #053905",
"B 	c #003E00",
"C 	c #004B00",
"D 	c #005B00",
"E 	c #007F00",
"F 	c #009F00",
"G 	c #00B200",
"H 	c #00C700",
"I 	c #03E612",
"J 	c #0FF122",
"K 	c #04EC17",
"L 	c #09F11C",
"M 	c #0BF41F",
"N 	c #04EA17",
"O 	c #58E25B",
"P 	c #3C643C",
"Q 	c #003600",
"R 	c #014001",
"S 	c #004C00",
"T 	c #006B00",
"U 	c #007E00",
"V 	c #008C00",
"W 	c #009C00",
"X 	c #00AC00",
"Y 	c #00CC01",
"Z 	c #4BFB59",
"` 	c #78FF84",
" .	c #22F534",
"..	c #07EE1B",
"+.	c #05ED1A",
"@.	c #00DD0A",
"#.	c #BFEFBF",
"$.	c #AFBFAF",
"%.	c #003400",
"&.	c #013801",
"*.	c #004100",
"=.	c #004D00",
"-.	c #007B00",
";.	c #008900",
">.	c #009800",
",.	c #00A600",
"'.	c #02D008",
").	c #7CFC87",
"!.	c #BFFFC4",
"~.	c #69FD76",
"{.	c #07EB1A",
"].	c #01EA14",
"^.	c #02EB16",
"/.	c #00E30F",
"(.	c #2CD52D",
"_.	c #FEFEFE",
":.	c #295529",
"<.	c #013A01",
"[.	c #004200",
"}.	c #006900",
"|.	c #007900",
"1.	c #008600",
"2.	c #009400",
"3.	c #00A200",
"4.	c #02CA07",
"5.	c #8AFC93",
"6.	c #E1FFE2",
"7.	c #ACFFB2",
"8.	c #17F129",
"9.	c #00E410",
"0.	c #00E712",
"a.	c #01E311",
"b.	c #08D50B",
"c.	c #B0EAB0",
"d.	c #BBC9BB",
"e.	c #0B3D0B",
"f.	c #013501",
"g.	c #003900",
"h.	c #005A00",
"i.	c #006800",
"j.	c #007600",
"k.	c #008300",
"l.	c #00C000",
"m.	c #79FA83",
"n.	c #E2FFE5",
"o.	c #CBFFCF",
"p.	c #31F742",
"q.	c #00E00C",
"r.	c #00E20F",
"s.	c #00E00E",
"t.	c #00D604",
"u.	c #60D860",
"v.	c #FBFEFB",
"w.	c #728F72",
"x.	c #003300",
"y.	c #005800",
"z.	c #006500",
"A.	c #007300",
"B.	c #008100",
"C.	c #009B00",
"D.	c #4AF557",
"E.	c #CAFFCE",
"F.	c #CCFFD1",
"G.	c #45F955",
"H.	c #00DE08",
"I.	c #00DC08",
"J.	c #00DD09",
"K.	c #00D703",
"L.	c #16C716",
"M.	c #ECF9EC",
"N.	c #F0F3F0",
"O.	c #315B31",
"P.	c #003500",
"Q.	c #005700",
"R.	c #006300",
"S.	c #007100",
"T.	c #007D00",
"U.	c #008800",
"V.	c #009700",
"W.	c #12E51F",
"X.	c #9EFFA6",
"Y.	c #B9FFBF",
"Z.	c #49FA59",
"`.	c #00DC06",
" +	c #00D804",
".+	c #00D905",
"++	c #00D502",
"@+	c #00C500",
"#+	c #B3E7B3",
"$+	c #DEE5DE",
"%+	c #005500",
"&+	c #006100",
"*+	c #006E00",
"=+	c #00A000",
"-+	c #00CA00",
";+	c #54FD63",
">+	c #96FF9F",
",+	c #38F849",
"'+	c #00D200",
")+	c #00D300",
"!+	c #52C952",
"~+	c #95AB95",
"{+	c #013401",
"]+	c #004900",
"^+	c #005400",
"/+	c #005F00",
"(+	c #007700",
"_+	c #008F00",
":+	c #00B500",
"<+	c #10E81C",
"[+	c #51FF62",
"}+	c #16EE26",
"|+	c #00D100",
"1+	c #00D000",
"2+	c #04B204",
"3+	c #446A44",
"4+	c #005200",
"5+	c #005D00",
"6+	c #007400",
"7+	c #008A00",
"8+	c #00CA02",
"9+	c #06E916",
"0+	c #01DE0A",
"a+	c #00CB00",
"b+	c #00CC00",
"c+	c #01C501",
"d+	c #00B400",
"e+	c #C8E9C8",
"f+	c #004000",
"g+	c #004700",
"h+	c #005100",
"i+	c #008700",
"j+	c #00CD01",
"k+	c #00CD00",
"l+	c #00C400",
"m+	c #00C800",
"n+	c #00C300",
"o+	c #7ECE7E",
"p+	c #DCE3DC",
"q+	c #003F00",
"r+	c #004600",
"s+	c #004F00",
"t+	c #00A700",
"u+	c #00B900",
"v+	c #00BF00",
"w+	c #00C100",
"x+	c #40B840",
"y+	c #A2B5A2",
"z+	c #003800",
"A+	c #004500",
"B+	c #004E00",
"C+	c #006000",
"D+	c #008B00",
"E+	c #00B700",
"F+	c #00BD00",
"G+	c #1DAC1D",
"H+	c #708D70",
"I+	c #005E00",
"J+	c #007C00",
"K+	c #009200",
"L+	c #00A500",
"M+	c #00AE00",
"N+	c #00B300",
"O+	c #00BA00",
"P+	c #15AA15",
"Q+	c #E6F3E6",
"R+	c #486D48",
"S+	c #003700",
"T+	c #003D00",
"U+	c #004A00",
"V+	c #005300",
"W+	c #005C00",
"X+	c #006F00",
"Y+	c #007800",
"Z+	c #008D00",
"`+	c #00B000",
" @	c #10A710",
".@	c #CDE9CD",
"+@	c #265226",
"@@	c #003B00",
"#@	c #004800",
"$@	c #006200",
"%@	c #007500",
"&@	c #00A900",
"*@	c #00AD00",
"=@	c #0BA30B",
"-@	c #B8DFB8",
";@	c #1C4A1C",
">@	c #005600",
",@	c #008500",
"'@	c #008E00",
")@	c #009E00",
"!@	c #00A400",
"~@	c #00AF00",
"{@	c #079F07",
"]@	c #A7D7A7",
"^@	c #F9FBF9",
"/@	c #174617",
"(@	c #009A00",
"_@	c #00AA00",
":@	c #7FC27F",
"<@	c #F7FBF7",
"[@	c #3F663F",
"}@	c #2A552A",
"|@	c #2A582A",
"1@	c #2A5D2A",
"2@	c #2A622A",
"3@	c #2A682A",
"4@	c #2A6E2A",
"5@	c #2A752A",
"6@	c #2A7C2A",
"7@	c #2A832A",
"8@	c #2A8B2A",
"9@	c #2A922A",
"0@	c #2A992A",
"a@	c #2AA02A",
"b@	c #2AA62A",
"c@	c #2AAB2A",
"d@	c #2AAF2A",
"e@	c #2CB22C",
"f@	c #2BB32B",
"g@	c #2BB22B",
"h@	c #28A528",
"i@	c #92C992",
"j@	c #E5ECE5",
"k@	c #B4C9B4",
"l@	c #B2CAB2",
"m@	c #B2CBB2",
"n@	c #B2CCB2",
"o@	c #B2CFB2",
"p@	c #B2D2B2",
"q@	c #B2D6B2",
"r@	c #B1DAB1",
"s@	c #B2DDB2",
"t@	c #B2E0B2",
"u@	c #B2E2B2",
"v@	c #B2E4B2",
"w@	c #B2E7B2",
"x@	c #B2EAB2",
"y@	c #B2EDB2",
"z@	c #B1EFB1",
"A@	c #B1F1B1",
"B@	c #B1F4B2",
"C@	c #B1F6B3",
"D@	c #B1F8B5",
"E@	c #B2F9B6",
"F@	c #B2F9B7",
"G@	c #B2F8B6",
"H@	c #B1F5B3",
"I@	c #C9F4C9",
"J@	c #FDFFFD",
"K@	c #86A186",
"L@	c #073E07",
"M@	c #094009",
"N@	c #094109",
"O@	c #094509",
"P@	c #094D09",
"Q@	c #094F09",
"R@	c #095709",
"S@	c #095F09",
"T@	c #096809",
"U@	c #096D09",
"V@	c #097609",
"W@	c #097C09",
"X@	c #098109",
"Y@	c #098809",
"Z@	c #099009",
"`@	c #099509",
" #	c #099909",
".#	c #099C09",
"+#	c #09A10A",
"@#	c #09A40A",
"##	c #09A30A",
"$#	c #089A08",
"%#	c #32A032",
"&#	c #EFF7EF",
"*#	c #8AA48A",
"=#	c #005000",
"-#	c #007000",
";#	c #008400",
">#	c #329032",
",#	c #F0F6F0",
"'#	c #A8BBA8",
")#	c #073D07",
"!#	c #004400",
"~#	c #007A00",
"{#	c #509750",
"]#	c #F7FAF7",
"^#	c #DBE3DB",
"/#	c #124612",
"(#	c #013901",
"_#	c #82AD82",
":#	c #416B41",
"<#	c #015701",
"[#	c #0F5A0F",
"}#	c #CBDACB",
"|#	c #D7E0D7",
"1#	c #014D01",
"2#	c #538153",
"3#	c #8FA88F",
"4#	c #014601",
"5#	c #0F490F",
"6#	c #F8FAF8",
"7#	c #F9FAF9",
"8#	c #527852",
"9#	c #013B01",
"0#	c #083E08",
"a#	c #D0DBD0",
"b#	c #EDF1ED",
"c#	c #4D744D",
"d#	c #0B410B",
"e#	c #B2C3B2",
"f#	c #7C997C",
"g#	c #194C19",
"h#	c #D8E1D8",
"i#	c #F3F8F3",
"j#	c #FBFDFB",
"k#	c #AFC1AF",
"l#	c #1F501F",
"m#	c #023A02",
"n#	c #0D420D",
"o#	c #5C805C",
"p#	c #FCFDFC",
"q#	c #F1F7F1",
"r#	c #5C9D5C",
"s#	c #559A55",
"t#	c #89B889",
"u#	c #BED8BE",
"v#	c #F3F5F3",
"w#	c #90A990",
"x#	c #3C673C",
"y#	c #184B18",
"z#	c #678867",
"A#	c #C3D0C3",
"B#	c #EBF3EB",
"C#	c #BCD7BC",
"D#	c #62A162",
"E#	c #147314",
"F#	c #0D6E0D",
"G#	c #338533",
"H#	c #86B786",
"I#	c #D5E6D5",
"J#	c #FDFDFD",
"K#	c #E1E7E1",
"L#	c #8DA68D",
"M#	c #406A40",
"N#	c #043A04",
"O#	c #1D4E1D",
"P#	c #698A69",
"Q#	c #B9C9B9",
"R#	c #ECF0EC",
"S#	c #B9D5B9",
"T#	c #539853",
"U#	c #107010",
"V#	c #006700",
"W#	c #036903",
"X#	c #529852",
"Y#	c #A3C8A3",
"Z#	c #E8F2E8",
"`#	c #E2EBE2",
" $	c #1C511C",
".$	c #0F870F",
"+$	c #9FE09F",
"@$	c #F2F7F2",
"#$	c #B2D1B2",
"$$	c #70A970",
"%$	c #287E28",
"&$	c #247B24",
"*$	c #095D09",
"=$	c #087F08",
"-$	c #74CC76",
";$	c #D3E5D3",
">$	c #6BA76B",
",$	c #056A05",
"'$	c #076F07",
")$	c #2A802A",
"!$	c #9EC59E",
"~$	c #A2C8A2",
"{$	c #328432",
"]$	c #0E6F0E",
"^$	c #82B482",
"/$	c #E5EFE5",
"($	c #F8FBF8",
"_$	c #CEE2CE",
":$	c #83B583",
"<$	c #378737",
"[$	c #046904",
"}$	c #509650",
"|$	c #9DC59D",
"1$	c #E9F2E9",
"2$	c #C9DFC9",
"3$	c #4E954E",
"4$	c #187418",
"5$	c #5E9F5E",
"6$	c #E1EDE1",
"7$	c #E5F0E5",
"8$	c #589B58",
"9$	c #137113",
"0$	c #418D41",
"a$	c #EFF5EF",
"b$	c #DAE9DA",
"c$	c #80B380",
"d$	c #217B21",
"e$	c #257D25",
"f$	c #6FA96F",
"g$	c #E8F1E8",
"h$	c #93BE93",
"i$	c #0C6D0C",
"j$	c #569A56",
"k$	c #C5DCC5",
"                                        . + @ # $ % & * =                                       ",
"                                      - ; > , ' ) ! ~ { ] ^                                     ",
"                                    / ( _ : < [ } | 1 2 3 4 5                                   ",
"                                  6 7 8 9 0 a ' b c d e f g h i                                 ",
"                                j k l m n 0 o p q r s t u v w x y                               ",
"                              z A B C D n E , F G H I J K L M N O                               ",
"                              P Q R S D T U V W X Y Z `  .K ..+.@.#.                            ",
"                            $.%.&.*.=.D 9 -.;.>.,.'.).!.~.{.].^./.(._.                          ",
"                            :.%.<.[.=.D }.|.1.2.3.4.5.6.7.8.9.0.a.b.c.                          ",
"                          d.e.f.g.[.=.h.i.j.k., F l.m.n.o.p.q.r.s.t.u.v.                        ",
"                        _.w.x.%.k *.S y.z.A.B.V C.G D.E.F.G.H.I.J.K.L.M.                        ",
"                        N.O.x.P.k *.S Q.R.S.T.U.V.' W.X.Y.Z.`. +.+++@+#+                        ",
"                        $+x.x.P.k [.C %+&+*+-.1.o =+-+;+>+,+K.'+++)+H !+                        ",
"                        ~+x.{+P.k *.]+^+/+T (+k._+C.:+<+[+}+'+c |+1+H 2+                        ",
"                        3+x.x.P.k *.]+4+5+i.6+0 7+V.' 8+9+0+a+r b+b+c+d+e+                      ",
"                        {+%.x.P.g.f+g+h+D _ S.T.i+o F :+j+k+l+l+m+m+n+q o+                      ",
"                      p+x.{+x.%.g.q+r+s+m R.*+|.k._+C.t+u+v+) l.n+l+w+q x+                      ",
"                      y+%.%.%.%.z+B A+B+Q.C+T j.0 D+a =+X :+E+b v+w+F+d+G+                      ",
"                      H+%.%.%.%.z+B 7 S ^+I+i.> J+i+K+W L+M+N+E+O+b u+N+P+Q+                    ",
"                      R+%.%.%.%.S+T+7 U+V+W+z.X+Y+k.Z+>.=+' M+G q E+q `+ @.@                    ",
"                      +@%.%.%.%.Q @@*.#@h+m $@n %@E 7+K+W 3.&@*@G d+G X =@-@                    ",
"                      ;@f.%.%.%.Q k f+g+B+>@C+}.> J+,@'@>.)@!@&@X ~@M+' {@]@                    ",
"                    ^@/@x.x.x.x.P.z+q+A+=.^+5+z.*+(+0 7+K+(@F !@t+_@' p >.:@                    ",
"                    <@[@}@}@}@}@}@|@1@2@3@4@5@6@7@8@9@0@a@b@c@d@e@f@g@d@h@i@                    ",
"                                                                                                ",
"                    j@k@l@l@m@n@o@p@q@r@s@t@u@v@w@x@y@z@A@B@C@D@E@E@F@G@H@I@J@                  ",
"                    K@L@M@M@M@N@N@O@P@Q@R@S@T@U@V@W@X@Y@Z@`@ #.#+#@###+#$#%#&#                  ",
"                    *#z+z+z+z+z+z+S+@@*.A+]+=#Q.5+R.9 -#Y+T.k.1.U.;.7+i+;#>#,#                  ",
"                    '#)#z+z+z+z+z+z+S+@@f+!##@B+^+m /+z.9 X+%@~#T.0 E J+%@{#]#                  ",
"                    ^#/#(#z+z+z+z+z+S+S+g.B [.r+U+s+V+y.5+$@_ i.n X+X+T &+_#                    ",
"                      :#S+&.z+z+z+z+z+z+S+S+g.B f+A+U+=.=#V+>@m h.D h.<#[#}#                    ",
"                      |#S+z+&.z+z+z+z+z+z+S+S+S+z+k f+!#r+#@C S =.=.1#]+2#                      ",
"                        3#S+(#z+z+z+z+z+z+z+z+z+S+S+z+T+f+[.7 !#A+4#7 5#6#                      ",
"                        7#8#S+(#&.z+z+z+z+z+z+z+z+z+z+S+S+z+g.k 9#g.0#a#                        ",
"                          b#c#S+(#(#z+z+z+z+z+z+z+z+z+z+z+S+S+&.S+d#e#                          ",
"                            7#f#S+S+z+z+z+z+z+z+z+z+z+z+z+z+(#S+g#h#                            ",
"                  _.i#j#        k#l#m#S+S+&.z+z+z+z+z+z+S+S+n#o#p#                              ",
"                  q#r#s#t#u#,#    v#w#x#z+S+S+z+&.S+S+S+y#z#A#                                  ",
"                  _.B#C#D#E#F#G#H#I#  J#K#L#M#N#Q O#P#Q#R#J#                                    ",
"                            S#T#U#V#W#X#Y#Z#`# $.$+$                                            ",
"                                @$#$$$%$V#V#&$*$=$-$                                            ",
"                                      q#;$>$,$V#i.'$)$!$                                        ",
"                                              ~${$]$_ V#F#^$/$($                                ",
"                                                  _$:$<$V#_ [$}$|$1$                            ",
"                                                      @$2$3$_ _ ,$4$5$6$                        ",
"                                                            7$8$9$V#_ V#0$u#a$                  ",
"                                                                b$c$d$V#_ V#e$f$g$              ",
"                                                                    a$h$i$[$j$k$p#              "};
